<?xml version="1.0" encoding="utf-8"?>
<!-- Uploaded to: SVG Repo, www.svgrepo.com, Generator: SVG Repo Mixer Tools -->
<svg width="800px" height="800px" viewBox="0 0 1024 1024" class="icon"  version="1.1" xmlns="http://www.w3.org/2000/svg"><path d="M702 237.6H321c-150.7 0-273.3 122.6-273.3 273.3 0 150.7 122.6 273.3 273.3 273.3h381c150.7 0 273.3-122.6 273.3-273.3 0-150.7-122.6-273.3-273.3-273.3z m0 496.9H321c-123.3 0-223.6-100.3-223.6-223.6S197.7 287.3 321 287.3h381c123.3 0 223.6 100.3 223.6 223.6S825.3 734.5 702 734.5zM420.4 486.1h-74.5v-74.5c0-13.7-11.1-24.8-24.8-24.8-13.7 0-24.8 11.1-24.8 24.8v74.5h-74.5c-13.7 0-24.8 11.1-24.8 24.8 0 13.7 11.1 24.8 24.8 24.8h74.5v74.5c0 13.7 11.1 24.8 24.8 24.8 13.7 0 24.8-11.1 24.8-24.8v-74.5h74.5c13.7 0 24.8-11.1 24.8-24.8 0.1-13.7-11.1-24.8-24.8-24.8zM702 386.6c-18.3 0-33.1 14.8-33.1 33.1s14.8 33.1 33.1 33.1 33.1-14.8 33.1-33.1c0-18.2-14.8-33.1-33.1-33.1z m0 182.2c-18.3 0-33.1 14.8-33.1 33.1S683.7 635 702 635s33.1-14.8 33.1-33.1c0-18.2-14.8-33.1-33.1-33.1z m-91.1-91.1c-18.3 0-33.1 14.8-33.1 33.1s14.8 33.1 33.1 33.1 33.1-14.8 33.1-33.1c0-18.2-14.8-33.1-33.1-33.1z m182.2 0c-18.3 0-33.1 14.8-33.1 33.1s14.8 33.1 33.1 33.1 33.1-14.8 33.1-33.1c0-18.2-14.8-33.1-33.1-33.1z" fill="#FCA128" /></svg>