<?xml version="1.0" encoding="iso-8859-1"?>
<!-- Uploaded to: SVG Repo, www.svgrepo.com, Generator: SVG Repo Mixer Tools -->
<svg version="1.1" id="Layer_1" xmlns="http://www.w3.org/2000/svg" xmlns:xlink="http://www.w3.org/1999/xlink" 
	 viewBox="0 0 512 512" xml:space="preserve">
<g transform="translate(1 1)">
	<path style="fill:#FFE100;" d="M365.933,118.467c0,61.44-49.493,110.933-110.933,110.933s-110.933-49.493-110.933-110.933
		S193.56,7.533,255,7.533S365.933,57.027,365.933,118.467"/>
	<path style="fill:#FFA800;" d="M255,7.533c-4.267,0-8.533,0-12.8,0.853c55.467,5.973,98.133,52.907,98.133,110.08
		s-42.667,104.107-98.133,110.08c4.267,0.853,8.533,0.853,12.8,0.853c61.44,0,110.933-49.493,110.933-110.933
		S316.44,7.533,255,7.533"/>
	<path style="fill:#FFFFFF;" d="M255,7.533c4.267,0,8.533,0,12.8,0.853c-55.467,5.973-98.133,52.907-98.133,110.08
		s42.667,104.107,98.133,110.08c-4.267,0.853-8.533,0.853-12.8,0.853c-61.44,0-110.933-49.493-110.933-110.933
		S193.56,7.533,255,7.533"/>
	<g>
		<path style="fill:#FFE100;" d="M313.027,118.467c0,61.44-26.453,110.933-58.027,110.933s-58.027-49.493-58.027-110.933
			S222.573,7.533,255,7.533S313.027,57.027,313.027,118.467"/>
		<path style="fill:#FFE100;" d="M434.2,340.333c-5.12,0-8.533-3.413-8.533-8.533v-25.6H101.4v25.6c0,5.12-3.413,8.533-8.533,8.533
			s-8.533-3.413-8.533-8.533v-34.133c0-5.12,3.413-8.533,8.533-8.533H434.2c5.12,0,8.533,3.413,8.533,8.533V331.8
			C442.733,336.92,439.32,340.333,434.2,340.333z"/>
		<path style="fill:#FFE100;" d="M263.533,306.2c-5.12,0-8.533-3.413-8.533-8.533v-25.6c0-5.12,3.413-8.533,8.533-8.533
			c5.12,0,8.533,3.413,8.533,8.533v25.6C272.067,302.787,268.653,306.2,263.533,306.2z"/>
	</g>
	<g>
		<path style="fill:#FDCC00;" d="M101.4,459.8H67.267c0,23.893-18.773,42.667-42.667,42.667h119.467
			C120.173,502.467,101.4,483.693,101.4,459.8"/>
		<path style="fill:#FDCC00;" d="M442.733,459.8H408.6c0,23.893-18.773,42.667-42.667,42.667H485.4
			C461.507,502.467,442.733,483.693,442.733,459.8"/>
	</g>
	<g>
		<polygon style="fill:#FFE100;" points="7.533,459.8 161.133,459.8 161.133,357.4 7.533,357.4 		"/>
		<polygon style="fill:#FFE100;" points="348.867,459.8 502.467,459.8 502.467,357.4 348.867,357.4 		"/>
	</g>
	<polygon style="fill:#FFA800;" points="476.867,459.8 502.467,459.8 502.467,357.4 476.867,357.4 	"/>
	<polygon style="fill:#FFFFFF;" points="7.533,468.333 33.133,468.333 33.133,365.933 7.533,365.933 	"/>
	<path d="M161.133,468.333H7.533C2.413,468.333-1,464.92-1,459.8V357.4c0-5.12,3.413-8.533,8.533-8.533h153.6
		c5.12,0,8.533,3.413,8.533,8.533v102.4C169.667,464.92,166.253,468.333,161.133,468.333z M16.067,451.267H152.6v-85.333H16.067
		V451.267z"/>
	<path d="M255,237.933c-65.707,0-119.467-53.76-119.467-119.467S189.293-1,255-1s119.467,53.76,119.467,119.467
		S320.707,237.933,255,237.933z M255,16.067c-56.32,0-102.4,46.08-102.4,102.4s46.08,102.4,102.4,102.4s102.4-46.08,102.4-102.4
		S311.32,16.067,255,16.067z"/>
	<path d="M255,237.933c-37.547,0-66.56-52.053-66.56-119.467S217.453-1,255-1s66.56,52.053,66.56,119.467
		S292.547,237.933,255,237.933z M255,16.067c-27.307,0-49.493,46.933-49.493,102.4s23.04,102.4,49.493,102.4
		c27.307,0,49.493-46.933,49.493-102.4S282.307,16.067,255,16.067z"/>
	<rect x="246.467" y="7.533" width="17.067" height="221.867"/>
	<rect x="144.067" y="109.933" width="221.867" height="17.067"/>
	<path d="M144.067,511H24.6c-5.12,0-8.533-3.413-8.533-8.533c0-5.12,3.413-8.533,8.533-8.533c18.773,0,34.133-15.36,34.133-34.133
		c0-5.12,3.413-8.533,8.533-8.533H101.4c5.12,0,8.533,3.413,8.533,8.533c0,18.773,15.36,34.133,34.133,34.133
		c5.12,0,8.533,3.413,8.533,8.533C152.6,507.587,149.187,511,144.067,511z M63,493.933h43.52
		c-5.973-6.827-11.093-16.213-11.947-25.6H74.947C73.24,477.72,68.973,487.107,63,493.933z"/>
	<path d="M502.467,468.333h-153.6c-5.12,0-8.533-3.413-8.533-8.533V357.4c0-5.12,3.413-8.533,8.533-8.533h153.6
		c5.12,0,8.533,3.413,8.533,8.533v102.4C511,464.92,507.587,468.333,502.467,468.333z M357.4,451.267h136.533v-85.333H357.4V451.267
		z"/>
	<path d="M485.4,511H365.933c-5.12,0-8.533-3.413-8.533-8.533c0-5.12,3.413-8.533,8.533-8.533c18.773,0,34.133-15.36,34.133-34.133
		c0-5.12,3.413-8.533,8.533-8.533h34.133c5.12,0,8.533,3.413,8.533,8.533c0,18.773,15.36,34.133,34.133,34.133
		c5.12,0,8.533,3.413,8.533,8.533C493.933,507.587,490.52,511,485.4,511z M404.333,493.933h43.52
		c-5.973-6.827-11.093-16.213-11.947-25.6h-18.773C414.573,477.72,410.307,487.107,404.333,493.933z"/>
	<path d="M425.667,331.8c-5.12,0-8.533-3.413-8.533-8.533v-25.6H92.867v25.6c0,5.12-3.413,8.533-8.533,8.533
		s-8.533-3.413-8.533-8.533v-34.133c0-5.12,3.413-8.533,8.533-8.533h341.333c5.12,0,8.533,3.413,8.533,8.533v34.133
		C434.2,328.387,430.787,331.8,425.667,331.8z"/>
	<path d="M255,297.667c-5.12,0-8.533-3.413-8.533-8.533v-25.6c0-5.12,3.413-8.533,8.533-8.533s8.533,3.413,8.533,8.533v25.6
		C263.533,294.253,260.12,297.667,255,297.667z"/>
</g>
</svg>